<?xml version="1.0" encoding="utf-8"?>
<!-- Generator: Adobe Illustrator 16.0.4, SVG Export Plug-In . SVG Version: 6.00 Build 0)  -->
<!DOCTYPE svg PUBLIC "-//W3C//DTD SVG 1.1//EN" "http://www.w3.org/Graphics/SVG/1.1/DTD/svg11.dtd">
<svg version="1.1" id="レイヤー_1" xmlns="http://www.w3.org/2000/svg" xmlns:xlink="http://www.w3.org/1999/xlink" x="0px"
	 y="0px" width="207.575px" height="334.762px" viewBox="0 0 207.575 334.762" enable-background="new 0 0 207.575 334.762"
	 xml:space="preserve">
<polygon fill="#FFFFFF" points="172.961,0 172.378,4.664 178.04,22.733 169.047,27.48 166.631,27.48 151.56,19.652 142.981,19.153 
	137.194,21.235 127.023,26.48 115.085,17.946 113.003,20.111 110.089,23.359 106.007,23.109 103.426,24.732 101.887,27.73 
	101.887,41.678 106.8,46.218 113.378,54.878 116.584,54.878 119.25,57.418 118.833,65.87 112.711,74.53 99.638,87.854 
	99.638,91.436 104.051,98.556 110.714,104.135 120.289,104.135 129.741,98.388 129.715,87.882 133.683,83.801 137.625,83.997 
	152.169,96.849 153.002,100.179 154.501,102.011 158.554,102.232 162.607,106.286 164.994,109.949 165.271,113.392 173.322,123.497 
	174.377,125.661 174.875,130.99 176.708,133.823 175.875,137.319 175.292,143.315 173.96,148.146 172.627,152.891 171.295,156.889 
	170.379,161.886 170.046,166.243 169.047,171.85 167.937,176.18 166.493,178.512 163.94,179.067 161.386,178.568 161.664,175.626 
	162.968,174.564 162.829,171.018 158.443,166.743 151.448,160.692 149.449,154.862 148.062,150.81 146.896,146.867 145.564,143.26 
	144.453,139.151 141.733,133.433 137.291,140.484 134.57,143.259 129.963,140.649 128.742,141.094 128.742,142.815 129.908,146.979 
	127.023,153.14 124.689,155.584 123.746,155.305 120.415,150.587 117.916,147.089 115.807,145.812 112.142,144.259 110.31,143.536 
	110.144,138.872 107.812,132.711 103.37,121.163 100.65,114.167 97.874,109.837 93.322,104.454 92.685,98.763 88.521,91.852 
	86.854,86.271 82.608,82.191 78.944,80.443 56.542,76.446 41.054,74.863 31.312,73.949 27.814,74.446 20.569,83.524 18.987,82.941 
	14.739,82.191 9.076,73.698 0,77.86 1.956,82.982 4.872,88.271 6.247,89.228 15.905,89.533 22.067,99.178 22.54,109.672 
	28.202,121.607 29.257,130.879 29.368,133.488 27.203,135.432 24.815,135.626 20.457,140.011 20.292,143.704 23.9,146.812 
	32.061,155.639 38.723,164.217 42.804,168.714 51.075,177.569 62.733,187.672 71.949,196.666 75.945,196.861 78.028,198.276 
	80.318,200.358 82.608,204.522 82.774,207.381 83.498,208.879 83.55,218.817 83.55,233.474 88.104,234.085 91.103,235.972 
	92.212,239.69 93.656,245.465 94.184,247.012 95.119,247.012 98.763,242.182 103.093,234.833 103.51,216.68 104.383,208.311 
	105.592,205.853 108.006,203.148 109.714,202.772 111.463,203.189 114.668,205.896 121.914,221.135 123.953,224.215 
	125.536,225.673 128.617,227.255 130.949,228.172 134.779,230.503 137.194,232.46 139.776,235.042 141.275,238.415 142.315,240.621 
	142.315,242.952 141.65,243.952 139.526,243.826 134.779,241.787 130.739,238.288 128.784,235.958 126.576,235.833 124.704,235.915 
	120.623,238.705 120.207,245.91 119.832,255.61 124.162,256.734 127.243,259.316 126.785,261.98 122.872,268.061 122.58,273.168 
	121.164,275.555 120.082,277.429 119.54,282.299 119.041,286.505 120.582,288.879 121.04,291.503 120.164,292.75 118.86,296.039 
	116.252,301.093 114.585,303.089 108.812,307.477 107.59,309.92 107.813,318.636 104.091,322.271 101.178,326.269 98.348,331.182 
	97.431,334.762 101.345,333.347 106.258,330.349 112.587,326.352 116.75,323.688 119.165,321.188 122.412,316.442 122.997,317.357 
	123.162,319.606 123.162,321.772 121.663,323.521 121.914,325.603 123.08,327.184 124.829,327.268 127.023,326.519 129.657,324.687 
	131.074,323.521 132.157,323.521 133.821,323.77 136.237,324.936 138.485,325.436 141.4,325.436 143.814,325.353 145.313,324.27 
	148.395,321.355 150.143,319.939 151.643,319.19 154.89,318.69 157.222,318.524 162.218,315.471 164.938,315.083 170.379,312.14 
	172.294,310.613 180.288,304.699 182.12,305.699 184.286,307.198 187.367,309.03 189.365,309.531 192.364,310.363 190.116,306.949 
	189.283,305.784 189.699,304.45 190.863,302.869 190.947,300.121 189.699,299.288 190.282,297.206 192.364,296.623 194.861,295.874 
	194.861,292.376 194.861,287.046 194.861,285.215 192.586,279.164 192.419,276.499 191.975,273.667 187.949,270.392 
	185.785,265.062 184.869,264.313 184.869,260.398 180.621,255.485 175.375,251.323 175.626,248.657 175.708,243.745 
	174.209,241.829 165.217,236.832 164.551,234 168.547,214.681 168.631,212.849 165.717,207.52 165.466,204.855 168.381,203.688 
	171.712,204.022 173.544,205.853 177.041,206.27 178.957,203.023 179.205,199.275 179.373,196.693 181.121,193.696 182.454,193.196 
	190.782,193.363 192.862,191.948 194.361,189.948 194.112,180.288 192.947,167.381 192.697,156.056 192.697,151.476 
	196.693,140.484 197.11,134.321 202.939,130.824 203.522,128.659 203.522,127.576 199.942,124.495 199.442,123.497 199.776,121.33 
	200.774,119.998 205.188,115.419 205.188,114.337 203.854,112.919 201.523,112.088 199.857,111.504 196.693,107.922 196.86,101.345 
	196.027,99.429 195.278,98.847 195.777,95.764 197.915,93.35 200.524,90.907 202.578,87.632 204.467,83.301 204.689,80.526 
	204.632,78.249 203.301,75.584 203.577,72.31 207.187,67.369 207.575,64.87 207.575,60.595 205.966,56.542 204.105,51.213 
	201.815,45.134 199.275,39.014 193.903,33.102 190.364,29.813 187.449,26.98 185.618,22.401 184.828,19.278 180.246,11.284 
	176.124,3.914 174.626,1.54 "/>
</svg>
